#!OML:ASF F:\VICON\USERDATA\INSTALL\rory3\rory3.ASF
:FULLY-SPECIFIED
:DEGREES
79
root 0.3538351099552375 19.081321891232502 -14.901831766959745 9.721809382720835 0.44695032914875044 -0.570757227682419
lfemur -29.024333697591494 6.94857144605348 -18.904160663544566
ltibia 37.78198140404708
lfoot -9.875021465586928 3.0007903511177005
ltoes 7.15487130621557
rfemur -19.670688461751 -3.821941340578709 19.12566912550444
rtibia 28.800745518573603
rfoot -14.434972557373118 -3.9352720832932717
rtoes 9.046219344275226
lowerback 7.948282943140224 -0.44202837922701954 -0.8960619798667839
upperback 7.19992419455456 -0.6179109410149979 1.6102725220891299
thorax 2.69677246026183 -0.3819955014354843 1.4591897313143714
lowerneck -13.981865363652448 0.5269609973840128 -2.011044684084641
upperneck 29.703160763685446 1.0546319287850079 -0.41741123052003815
head 12.38790129643604 0.31866441030838605 0.16402406211312848
lclavicle -1.1846503379742846e-17 -8.157052693572291e-16
lhumerus -17.936994281447323 -14.05887583252181 89.24089881617019
lradius 24.790600446245033
lwrist 19.547231434501636
lhand -25.762915257036155 -3.07136693596011
lfingers 7.125019999999999
lthumb -0.03697080058512903 26.06685686363108
rclavicle -1.1393250778589288e-17 -8.156252756021188e-16
rhumerus -21.134006160918446 0.06640629678221899 -82.50795654769503
rradius 33.19600921807141
rwrist 21.583132681394602
rhand -18.342186235885027 -26.076071772267362
rfingers 7.125019999999999
rthumb 8.104056777826951 -55.855450366577536
80
root 0.3406790218385347 19.063509491367615 -14.895615643269096 9.846915695562167 0.4630148210606806 -0.6056641504463244
lfemur -28.6947159061996 6.957804592356448 -18.881961485788743
ltibia 37.611273550832486
lfoot -9.819792006162041 3.062653643507989
ltoes 7.563905213488258
rfemur -19.80304355265073 -4.003106505911046 19.246318533593115
rtibia 28.91061326772855
rfoot -14.499022719098525 -3.901662462393436
rtoes 9.044049899142816
lowerback 7.68615168425301 -0.4308312284550433 -0.9483841522195164
upperback 7.020841554845182 -0.6094228088068572 1.6109430205135715
thorax 2.567951688935683 -0.3714199698366689 1.468658113067984
lowerneck -14.04733798186658 0.43652546822470534 -2.0020833533159688
upperneck 30.016288244773996 0.9167861391326968 -0.3814021254239708
head 12.525579777980706 0.2502390767804677 0.14937610265587498
lclavicle -1.1984672323216648e-17 -8.15889485639938e-16
lhumerus -18.16178721915048 -13.984057108867345 88.90732129149038
lradius 24.821272231601554
lwrist 19.93488813688373
lhand -25.669352310587225 -3.152852804863138
lfingers 7.125019999999999
lthumb 0.06485507338405916 25.980836113214387
rclavicle -1.1318559327389528e-17 -8.155272046946196e-16
rhumerus -21.1661974181169 -0.23240298956602468 -82.43638742852305
rradius 33.09907160877739
rwrist 21.78031402686233
rhand -18.38402276518037 -26.135593257466173
rfingers 7.125019999999999
rthumb 8.102015209775512 -55.906040320483605
81
root 0.33004252576101206 19.036163153377174 -14.891545114342595 9.995708411121939 0.48912545851770406 -0.6670413757515117
lfemur -28.52346137462417 6.954823304295203 -18.853962876943605
ltibia 37.532823252611074
lfoot -9.826317853557203 3.1011133252947083
ltoes 7.907093405423269
rfemur -19.967077091995307 -4.176301507030319 19.40603921602164
rtibia 29.071157587578515
rfoot -14.651932988503424 -3.9115578208758226
rtoes 8.961056620455448
lowerback 7.463582565245437 -0.4211244077761839 -0.947176331100479
upperback 6.8277961700852545 -0.599744637881124 1.61962638907371
thorax 2.4367877484354272 -0.36153264939106255 1.4668441460222565
lowerneck -14.122299593360536 0.3379675265487723 -2.007187373512116
upperneck 30.273101189973367 0.7915274273348828 -0.3651896799895422
head 12.641926259796032 0.17071065475524605 0.1307002708787266
lclavicle -1.1764877815389882e-17 -8.156269720698357e-16
lhumerus -18.358368095840202 -13.550473483545773 88.65096173215402
lradius 24.75748300909337
lwrist 20.10192752986994
lhand -25.547244165382878 -3.2282841661422292
lfingers 7.125019999999999
lthumb 0.23508112833525657 25.93677425327424
rclavicle -1.113575448093384e-17 -8.152854714196205e-16
rhumerus -21.24670776934766 -0.5079923302013687 -82.36140488910735
rradius 32.93686818998917
rwrist 22.018426671501086
rhand -18.446011148133724 -26.18854603333927
rfingers 7.125019999999999
rthumb 8.082513876606905 -55.9579255673148
82
root 0.32295286625245134 18.98501724804118 -14.900657524095184 10.117652390067251 0.48516146894983736 -0.7816003360896472
lfemur -28.52106933543689 6.952400296083981 -18.78695080543926
ltibia 37.642648575524746
lfoot -9.958844315470515 3.172910722367442
ltoes 8.014783169791192
rfemur -20.2611498743269 -4.343121837945163 19.640797928778678
rtibia 29.297487247081136
rfoot -14.926555239297533 -3.92968981461588
rtoes 8.69766654572043
lowerback 7.287612912442624 -0.40130048981299743 -0.8697671254991314
upperback 6.6380742186596855 -0.5697667597433752 1.6408779042623518
thorax 2.3145979660810267 -0.34287003120948595 1.4537764507651336
lowerneck -14.189739092759297 0.2514357219552239 -2.0169407583970544
upperneck 30.514976123309655 0.6733433228992857 -0.3544600817564787
head 12.73128068210953 0.08803142964755739 0.11427792534144154
lclavicle -1.1570439692132232e-17 -8.153975120466646e-16
lhumerus -18.50605287041909 -12.906864515769705 88.45755855901193
lradius 24.591292002652988
lwrist 20.026726054830874
lhand -25.445145367716542 -3.301449904972011
lfingers 7.125019999999999
lthumb 0.44701548038914496 25.9316837329089
rclavicle -1.0930583864042588e-17 -8.150148025008974e-16
rhumerus -21.323888441013523 -0.7252473207471266 -82.27636235126263
rradius 32.764173645321925
rwrist 22.272877331192397
rhand -18.532053701999832 -26.24704714583628
rfingers 7.125019999999999
rthumb 8.025637181864958 -56.01897993825651
83
root 0.31714050051683806 18.911815697479973 -14.92962495288192 10.319611901950886 0.5038700711481605 -0.920611947657338
lfemur -28.694886900656915 6.941087862719742 -18.717047152961975
ltibia 37.93276153066465
lfoot -10.18027376807719 3.2735756430117187
ltoes 7.939560546686037
rfemur -20.917949977932082 -4.5444557032444495 19.924588352768296
rtibia 29.713360347684915
rfoot -15.350014134403336 -3.919107272368489
rtoes 8.322047078532757
lowerback 7.085929984319894 -0.39374701421725655 -0.7755637749500487
upperback 6.399897741730639 -0.5560238227187412 1.6687773385636062
thorax 2.1990833281286664 -0.3329894436860842 1.4409233931392418
lowerneck -14.26468821866304 0.19516588345888097 -2.0230009354238643
upperneck 30.675756029723086 0.5867540837364469 -0.36269600725252227
head 12.81202522383568 0.028358624615898498 0.0948843868940118
lclavicle -1.1638432897622458e-17 -8.155055787648531e-16
lhumerus -18.5973894462538 -12.267716068203887 88.34339516626267
lradius 24.370118908958514
lwrist 19.779128599649738
lhand -25.33138675180496 -3.350850935988776
lfingers 7.125019999999999
lthumb 0.6930895519506964 25.972706414089345
rclavicle -1.105307522874373e-17 -8.151770283870258e-16
rhumerus -21.340368717526818 -0.8415145744895014 -82.19684222307447
rradius 32.62481082360376
rwrist 22.501179184031002
rhand -18.640515364808863 -26.31584708576439
rfingers 7.125019999999999
rthumb 7.9297121111166025 -56.09744638770965
84
root 0.31634496646351784 18.827339540614272 -14.973441124573188 10.581332580216962 0.4325493317802187 -1.0009010843333894
lfemur -29.014317626077062 6.9397288981767264 -18.70263607496507
ltibia 38.36703680791258
lfoot -10.456110503667885 3.4323918934960296
ltoes 7.755169311395397
rfemur -22.083661950421227 -4.744049961095632 20.12734940265827
rtibia 30.520464004654933
rfoot -15.894579176165214 -3.904198873270863
rtoes 7.884957747394241
lowerback 6.8686330145990535 -0.36138216940353396 -0.7615979018879495
upperback 6.1573687748554065 -0.5091126983183657 1.6736364117178457
thorax 2.0615952188815605 -0.30876234166699745 1.4363842376403615
lowerneck -14.349115601568824 0.1803850076137996 -2.037873546740896
upperneck 30.710644923044846 0.5692748867805154 -0.3963568678648941
head 12.860697499188685 0.004993272602747928 0.07061264888468155
lclavicle -1.1473879242889801e-17 -8.152980963110385e-16
lhumerus -18.64242434510045 -11.547257000010175 88.2360607030534
lradius 24.14278278081828
lwrist 19.423477429490827
lhand -25.217811902101705 -3.398201090149663
lfingers 7.125019999999999
lthumb 0.9480996206089717 26.029238017513343
rclavicle -1.1175944272372767e-17 -8.153398667876951e-16
rhumerus -21.260198868219852 -0.7903991380240081 -82.17642454320381
rradius 32.53540446195662
rwrist 22.70897153506334
rhand -18.755347792353668 -26.403476902761785
rfingers 7.125019999999999
rthumb 7.812867754161823 -56.20232486412043
85
root 0.31330600392006647 18.73996433684641 -15.038370013536944 11.041080504960856 0.2761392283781059 -0.9913305108465641
lfemur -29.589431285588315 6.952688218468865 -18.79256374019691
ltibia 38.883958400665755
lfoot -10.799004388493444 3.6415661961331196
ltoes 7.509608395093707
rfemur -23.891389989045344 -4.881492130831191 20.226791525712294
rtibia 31.757230357257544
rfoot -16.47561253963351 -3.920398455353649
rtoes 7.442958592891151
lowerback 6.60286703644978 -0.3103937769871367 -0.8853839014704526
upperback 5.856787535249396 -0.44119057353420327 1.642085356028549
thorax 1.877847886165606 -0.27428073393788277 1.4415769151568092
lowerneck -14.484251936968473 0.20724127851577084 -2.0405239005391644
upperneck 30.66495526413634 0.6133962313317609 -0.4528309094332117
head 12.895627535594887 0.016637208585665725 0.04311068915115979
lclavicle -1.1681908605472986e-17 -8.155687661980707e-16
lhumerus -18.63776567730857 -10.721496900813136 88.11601721030442
lradius 23.91822404281851
lwrist 18.987227599216673
lhand -25.083691632226515 -3.417157076730348
lfingers 7.125019999999999
lthumb 1.2210449787958169 26.126513967605298
rclavicle -1.1264246127878711e-17 -8.154559480923426e-16
rhumerus -21.09260603354903 -0.5575083796533291 -82.2466026175054
rradius 32.487033909534176
rwrist 22.876707507295468
rhand -18.85091844164795 -26.509412557694414
rfingers 7.125019999999999
rthumb 7.691762403665963 -56.33781063806805
